<svg id="Capa_1" enable-background="new 0 0 512 512" height="512" viewBox="0 0 512 512" width="512" xmlns="http://www.w3.org/2000/svg"><g><g><path d="m496.897 183.806h-35.635c-2.295 0-4.466.534-6.419 1.46.245 3.942.373 7.92.373 11.926v29.515c4.742 4.079 8.964 8.742 12.552 13.881h29.129c8.307 0 15.103-6.796 15.103-15.103v-26.576c0-8.307-6.797-15.103-15.103-15.103z" fill="#dfebfa"/></g><g fill="#b1dbfc"><path d="m479.414 225.485v-26.576c0-8.307 6.797-15.103 15.103-15.103h-33.256c-2.295 0-4.466.534-6.419 1.46.245 3.942.373 7.921.373 11.926v29.515c4.742 4.079 8.964 8.741 12.552 13.881h26.75c-8.306 0-15.103-6.796-15.103-15.103z"/><path d="m455.216 226.707h-.001z"/></g><g><path d="m48.658 226.707v-29.515c0-4.503.175-8.966.485-13.386h-34.04c-8.307 0-15.103 6.796-15.103 15.103v26.576c0 8.307 6.796 15.103 15.103 15.103h21.004c3.587-5.139 7.81-9.802 12.551-13.881z" fill="#dfebfa"/></g><path d="m24.571 225.485v-26.576c0-8.307 6.797-15.103 15.103-15.103h-24.571c-8.306 0-15.103 6.796-15.103 15.103v26.576c0 8.307 6.797 15.103 15.103 15.103h21.004c.089-.127.182-.25.271-.376-6.733-1.516-11.807-7.553-11.807-14.727z" fill="#b1dbfc"/><g><path d="m94.619 209.994h314.637c18.298 0 35.084 6.82 48.021 18.045v-29.775c0-31.612-7.598-61.605-21.394-84.452-15.024-24.878-35.614-38.58-57.979-38.58h-251.932c-22.365 0-42.955 13.701-57.979 38.58-13.796 22.848-21.394 52.84-21.394 84.452v29.775c12.935-11.224 29.721-18.045 48.02-18.045z" fill="#ff4756"/></g><g><path d="m79.724 198.265c0-31.612 7.598-61.605 21.394-84.452 15.024-24.878 35.614-38.58 57.979-38.58h-33.126c-22.365 0-42.955 13.701-57.979 38.58-13.796 22.848-21.394 52.84-21.394 84.452v29.775c9.33-8.096 20.669-13.882 33.126-16.489z" fill="#fc2d39"/></g><g><path d="m94.619 209.994h314.637c7.662 0 15.06 1.196 22.023 3.407v-15.137c0-26.866-6.251-52.012-17.599-70.808-10.124-16.764-22.829-25.997-35.776-25.997h-251.932c-12.947 0-25.653 9.233-35.776 25.997-11.349 18.796-17.599 43.943-17.599 70.808v15.137c6.962-2.211 14.36-3.407 22.022-3.407z" fill="#60b8fe"/></g><g><path d="m105.722 198.265c0-26.866 6.251-52.012 17.599-70.808 10.124-16.765 22.829-25.997 35.776-25.997h-33.126c-12.947 0-25.653 9.232-35.776 25.997-11.349 18.796-17.599 43.943-17.599 70.808v15.137c6.963-2.211 14.361-3.407 22.023-3.407h11.104v-11.73z" fill="#23a8fe"/></g><path d="m344.898 144.519c-31.622 0-57.256 25.86-57.256 57.76 0 2.618.189 5.19.524 7.715h26.068c-.609-2.471-.937-5.054-.937-7.715 0-17.607 14.148-31.88 31.602-31.88 17.453 0 31.602 14.273 31.602 31.88 0 2.661-.328 5.244-.937 7.715h26.068c.334-2.526.524-5.098.524-7.715-.002-31.9-25.636-57.76-57.258-57.76z" fill="#23a8fe"/><path d="m344.898 144.519c-31.622 0-57.256 25.86-57.256 57.76 0 2.618.189 5.19.524 7.715h26.068c-.609-2.471-.937-5.054-.937-7.715 0-17.607 14.148-31.88 31.602-31.88 17.453 0 31.602 14.273 31.602 31.88 0 2.661-.328 5.244-.937 7.715h26.068c.334-2.526.524-5.098.524-7.715-.002-31.9-25.636-57.76-57.258-57.76z" fill="#23a8fe"/><g><path d="m316.408 188.469c5.072-20.848 21.358-37.24 42.044-42.307-4.347-1.065-8.882-1.642-13.553-1.642-31.621 0-57.256 25.86-57.256 57.76 0 2.618.189 5.19.523 7.715h26.068c-.609-2.471-.937-5.054-.937-7.715-.001-4.949 1.117-9.633 3.111-13.811z" fill="#0193fa"/></g><path d="m409.256 208.819h-314.637c-40.612 0-73.841 33.228-73.841 73.841v75.523c1.092-.315 2.241-.494 3.43-.494h171.958c2.281-3.049 5.907-5.041 9.986-5.041h91.571c4.078 0 7.705 1.992 9.986 5.041h171.958c1.19 0 2.338.179 3.43.494v-75.523c-.001-40.612-33.229-73.841-73.841-73.841z" fill="#ff656f"/><g><path d="m69.261 282.66c0-40.613 33.228-73.841 73.841-73.841h-48.483c-40.612 0-73.841 33.228-73.841 73.841v75.523c1.092-.315 2.24-.493 3.43-.493h45.053z" fill="#ff4756"/></g><path d="m305.765 280.926c13.693 0 26.402-7.116 33.558-18.791l32.681-53.316h-240.134l32.681 53.316c7.156 11.674 19.865 18.791 33.558 18.791z" fill="#ff4756"/><path d="m209.106 262.135-32.681-53.316h-44.555l32.681 53.316c7.156 11.674 19.865 18.791 33.558 18.791h44.556c-13.693 0-26.402-7.117-33.559-18.791z" fill="#fc2d39"/><g><path d="m313.032 317.656h-122.19c-4.267 0-7.726-3.459-7.726-7.726 0-4.268 3.459-7.726 7.726-7.726h122.19c4.267 0 7.726 3.459 7.726 7.726s-3.459 7.726-7.726 7.726z" fill="#ff4756"/></g><circle cx="416.56" cy="282.904" fill="#ffd301" r="30.117"/><circle cx="87.314" cy="282.904" fill="#ffd301" r="30.117"/><path d="m416.318 282.904c0-11.196 6.114-20.957 15.18-26.148-4.403-2.521-9.5-3.97-14.938-3.97-16.633 0-30.117 13.484-30.117 30.117s13.484 30.117 30.117 30.117c5.438 0 10.534-1.448 14.938-3.97-9.067-5.189-15.18-14.951-15.18-26.146z" fill="#ffc20c"/><path d="m87.072 282.904c0-11.196 6.114-20.957 15.18-26.148-4.403-2.521-9.5-3.97-14.938-3.97-16.633 0-30.117 13.484-30.117 30.117s13.484 30.117 30.117 30.117c5.438 0 10.534-1.448 14.938-3.97-9.066-5.189-15.18-14.951-15.18-26.146z" fill="#ffc20c"/><g><path d="m375.182 388.443v33.031c0 8.412 6.882 15.294 15.294 15.294h67.679c8.411 0 15.294-6.882 15.294-15.294v-33.031z" fill="#665e68"/></g><path d="m420.235 421.473v-33.031h-45.053v33.031c0 8.411 6.882 15.294 15.294 15.294h45.052c-8.411 0-15.293-6.882-15.293-15.294z" fill="#544e55"/><g><path d="m30.425 388.443v33.031c0 8.412 6.882 15.294 15.294 15.294h67.679c8.411 0 15.294-6.882 15.294-15.294v-33.031z" fill="#665e68"/></g><path d="m75.478 421.473v-33.031h-45.053v33.031c0 8.411 6.882 15.294 15.294 15.294h45.053c-8.412 0-15.294-6.882-15.294-15.294z" fill="#544e55"/><path d="m194.703 384.095v-24.119c0-2.785.936-5.355 2.493-7.438h-172.988c-6.863 0-12.479 5.616-12.479 12.479v14.037c0 6.864 5.616 12.479 12.479 12.479h172.988c-1.557-2.082-2.493-4.653-2.493-7.438z" fill="#dfebfa"/><path d="m56.782 379.054v-14.037c0-6.863 5.616-12.479 12.479-12.479h-45.053c-6.863 0-12.479 5.616-12.479 12.479v14.037c0 6.864 5.616 12.479 12.479 12.479h45.053c-6.864 0-12.479-5.615-12.479-12.479z" fill="#b1dbfc"/><path d="m479.666 352.539h-172.988c1.557 2.082 2.493 4.653 2.493 7.438v24.119c0 2.785-.936 5.355-2.493 7.438h172.988c6.863 0 12.479-5.615 12.479-12.479v-14.037c0-6.864-5.616-12.479-12.479-12.479z" fill="#dfebfa"/><path d="m300.813 396.574h-97.752c-6.863 0-12.479-5.616-12.479-12.479v-24.119c0-6.863 5.616-12.479 12.479-12.479h97.752c6.863 0 12.479 5.616 12.479 12.479v24.119c0 6.864-5.616 12.479-12.479 12.479z" fill="#b1dbfc"/><path d="m235.635 384.095v-24.119c0-6.863 5.616-12.479 12.479-12.479h-45.052c-6.863 0-12.479 5.615-12.479 12.479v24.119c0 6.863 5.615 12.479 12.479 12.479h45.052c-6.864.001-12.479-5.615-12.479-12.479z" fill="#8bcaff"/></g></svg>