<?xml version="1.0" encoding="utf-8"?>
<!-- Generator: Adobe Illustrator 25.2.0, SVG Export Plug-In . SVG Version: 6.00 Build 0)  -->
<svg version="1.1" id="Capa_1" xmlns="http://www.w3.org/2000/svg" xmlns:xlink="http://www.w3.org/1999/xlink" x="0px" y="0px"
	 viewBox="0 0 512 512" style="enable-background:new 0 0 512 512;" xml:space="preserve">
<style type="text/css">
	.st0{fill:#EF5261;}
	.st1{fill:#EEEFEE;}
</style>
<g>
	<g>
		<path class="st0" d="M426.7,170.7C426.7,316.5,256,512,256,512S85.3,319.7,85.3,170.7C85.3,76.4,161.7,0,256,0
			S426.7,76.4,426.7,170.7L426.7,170.7z"/>
		<circle class="st1" cx="256" cy="167.4" r="112.4"/>
	</g>
	<g>
		<path d="M175.7,135.7h7.8V191h-7.8V135.7z M179.5,135.7h31v7.4h-31V135.7z M179.5,160.4h26.8v7.4h-26.8V160.4z"/>
		<path d="M218.5,151.5h7.8V191h-7.8V151.5z M237.7,159c-1-0.4-2.2-0.6-3.6-0.6c-2.5,0-4.4,0.7-5.7,2c-1.4,1.4-2,3.2-2,5.7l-0.8-7.6
			c1.2-2.4,2.8-4.2,4.7-5.5c1.9-1.3,4.1-2,6.4-2c1.8,0,3.4,0.3,4.9,0.8c1.5,0.5,2.7,1.3,3.8,2.3l-5.1,6.9
			C239.6,160.1,238.7,159.4,237.7,159z"/>
		<path d="M257.4,189.6c-2.4-1.3-4.3-3.3-5.6-5.9c-1.3-2.6-1.9-5.7-1.9-9.3V168c0-3.6,0.6-6.6,1.9-9.2c1.3-2.6,3.1-4.5,5.6-5.8
			s5.4-2,8.8-2s6.4,0.7,8.8,2s4.3,3.3,5.6,5.8c1.3,2.6,1.9,5.6,1.9,9.2v6.5c0,3.6-0.6,6.7-1.9,9.2c-1.3,2.6-3.1,4.5-5.6,5.8
			c-2.4,1.3-5.4,2-8.8,2S259.9,190.9,257.4,189.6z M272.5,181.7c1.5-1.7,2.2-4.1,2.2-7.2V168c0-3.1-0.7-5.4-2.2-7.1
			c-1.5-1.7-3.6-2.5-6.3-2.5c-2.7,0-4.8,0.8-6.3,2.5c-1.5,1.7-2.2,4-2.2,7.1v6.5c0,3.1,0.7,5.5,2.2,7.2c1.5,1.7,3.6,2.6,6.3,2.6
			C268.9,184.2,271,183.4,272.5,181.7z"/>
		<path d="M293.5,151.5h7.8V191h-7.8V151.5z M317.2,167.1c0-2.8-0.7-4.9-2.1-6.5c-1.4-1.5-3.3-2.3-5.8-2.3c-2.5,0-4.5,0.7-5.9,2
			c-1.4,1.3-2.1,3.2-2.1,5.7l-0.8-7.6c1.2-2.4,2.8-4.2,4.8-5.5c2-1.3,4.1-1.9,6.5-1.9c2.8,0,5.1,0.6,7.1,1.9c2,1.3,3.4,3.1,4.5,5.5
			c1,2.4,1.5,5.3,1.5,8.7v24h-7.8V167.1z M340.8,167.1c0-2.8-0.7-4.9-2.2-6.5c-1.4-1.5-3.5-2.3-6.1-2.3c-2.4,0-4.3,0.7-5.6,2.2
			c-1.3,1.5-2,3.6-2,6.2l-1.6-7.6c1.2-2.6,2.9-4.6,4.9-6.1c2-1.4,4.3-2.2,6.8-2.2c2.8,0,5.3,0.6,7.3,1.9c2,1.3,3.6,3.1,4.6,5.5
			c1.1,2.4,1.6,5.3,1.6,8.7v24h-7.8V167.1z"/>
	</g>
</g>
</svg>
