<?xml version="1.0" encoding="utf-8"?>
<!-- Generator: Adobe Illustrator 25.2.0, SVG Export Plug-In . SVG Version: 6.00 Build 0)  -->
<svg version="1.1" id="Capa_1" xmlns="http://www.w3.org/2000/svg" xmlns:xlink="http://www.w3.org/1999/xlink" x="0px" y="0px"
	 viewBox="0 0 512 512" style="enable-background:new 0 0 512 512;" xml:space="preserve">
<style type="text/css">
	.st0{fill:#EF5261;}
	.st1{fill:#EEEFEE;}
</style>
<g>
	<path class="st0" d="M426.7,170.7C426.7,316.5,256,512,256,512S85.3,319.7,85.3,170.7C85.3,76.4,161.7,0,256,0
		S426.7,76.4,426.7,170.7L426.7,170.7z"/>
	<circle class="st1" cx="256" cy="167.4" r="112.4"/>
</g>
<g>
	<path d="M220.2,139.4h39.1v7.4h-39.1V139.4z M235.8,143.9h7.8v50.8h-7.8V143.9z"/>
	<path d="M266.7,193.3c-2.4-1.3-4.3-3.3-5.6-5.9c-1.3-2.6-1.9-5.7-1.9-9.3v-6.4c0-3.6,0.6-6.6,1.9-9.2c1.3-2.6,3.1-4.5,5.6-5.8
		c2.4-1.3,5.4-2,8.8-2s6.4,0.7,8.8,2c2.4,1.3,4.3,3.3,5.6,5.8c1.3,2.6,1.9,5.6,1.9,9.2v6.5c0,3.6-0.6,6.7-1.9,9.2
		c-1.3,2.6-3.1,4.5-5.6,5.8c-2.4,1.3-5.4,2-8.8,2S269.2,194.7,266.7,193.3z M281.8,185.4c1.5-1.7,2.2-4.1,2.2-7.2v-6.5
		c0-3.1-0.7-5.4-2.2-7.1c-1.5-1.7-3.6-2.5-6.3-2.5s-4.8,0.8-6.3,2.5c-1.5,1.7-2.2,4-2.2,7.1v6.5c0,3.1,0.7,5.5,2.2,7.2
		c1.5,1.7,3.6,2.6,6.3,2.6S280.3,187.1,281.8,185.4z"/>
</g>
</svg>
